<?xml version="1.0" encoding="utf-8"?>
<!-- Generator: Adobe Illustrator 19.0.0, SVG Export Plug-In . SVG Version: 6.00 Build 0)  -->
<svg version="1.1" id="Layer_1" xmlns="http://www.w3.org/2000/svg" xmlns:xlink="http://www.w3.org/1999/xlink" x="0px" y="0px"
	 viewBox="-301 393 8 8" style="enable-background:new -301 393 8 8;" xml:space="preserve">
<style type="text/css">
	.st0{fill:#FFFFFF;}
</style>
<path class="st0" d="M-293.8,393.8c0.1-0.1,0.2-0.1,0.3,0c0.1,0.1,0,0.2-0.1,0.3c-1.6,1.6-2.9,3.4-4,5.4c-0.2,0.4-0.7,0.5-1.1,0.7
	c-0.1,0.1-0.2-0.1-0.2-0.2c-0.2-0.4-0.4-0.9-0.6-1.3c-0.2-0.4-0.5-0.7-1-0.9c-0.1,0-0.2-0.1-0.1-0.2c0.3-0.5,0.9-0.6,1.3-0.3
	c0.3,0.2,0.5,0.5,0.7,0.8c0.2,0.3,0.2,0.3,0.4,0c0.9-1.1,1.8-2.2,2.7-3.2c0.4-0.4,0.8-0.9,1.4-1.1
	C-293.9,393.9-293.8,393.9-293.8,393.8z"/>
</svg>
